<svg xmlns="http://www.w3.org/2000/svg" xmlns:xlink="http://www.w3.org/1999/xlink" width="36.648" height="72.00000000000001"><path fill="#009688" stroke="#00695c" d="M17.64 2.16C16.99 2.16 16.20 2.38 15.62 1.73C14.76 1.80 13.75 1.66 12.96 2.02C12.24 2.30 11.52 2.30 10.73 2.38C9.72 2.52 8.64 2.59 8.06 3.74L7.70 4.03C6.91 4.39 6.34 5.04 5.90 5.76C5.62 6.19 5.40 6.70 5.04 6.91C4.39 7.20 4.03 7.78 3.60 8.21C3.02 8.71 2.74 9.29 3.24 9.94C3.31 10.08 3.38 10.22 3.38 10.37C3.38 11.16 3.31 12.02 3.31 12.82C3.24 13.39 3.10 14.04 3.10 14.69C3.17 15.41 3.02 16.20 2.88 16.92C2.66 17.64 2.66 18.29 2.95 19.01C3.24 19.66 3.24 20.38 2.74 21.02C2.52 21.31 2.45 21.67 2.59 21.96C2.88 22.54 2.95 23.18 2.74 23.62C2.38 24.48 2.45 25.27 2.52 26.06C2.59 27.50 2.38 29.02 2.81 30.46C2.88 30.89 2.81 31.46 2.66 31.82C2.52 32.33 2.52 32.76 2.59 33.26C2.88 34.85 2.95 36.50 2.52 38.09C2.45 38.38 2.45 38.66 2.52 38.95C2.59 40.10 2.88 41.18 2.74 42.41C2.74 42.48 2.88 42.62 2.88 42.77C3.17 43.56 3.31 44.28 2.95 45.07C2.88 45.29 2.88 45.50 2.88 45.65C2.81 46.87 2.81 48.17 2.81 49.39C2.81 49.68 2.88 49.97 3.02 50.18C3.46 50.76 3.38 51.34 3.10 51.84C2.81 52.27 2.81 52.70 2.95 53.14C3.10 53.42 3.10 53.78 3.24 54.07C3.53 54.65 3.60 55.37 3.31 55.94C3.02 56.45 3.24 56.81 3.60 57.17C3.89 57.24 4.18 57.24 4.46 57.24C5.76 57.60 7.06 57.89 8.35 58.18C8.71 58.25 9.07 58.39 9.43 58.32C10.01 58.18 10.08 58.90 10.51 58.82C10.73 58.82 10.94 58.75 11.02 58.82C11.45 59.40 11.95 59.40 12.53 59.40C13.68 59.33 14.83 58.90 15.98 59.11C16.20 59.18 16.42 59.04 16.70 59.04C17.06 58.97 17.42 58.90 17.78 58.90C19.08 58.68 20.38 58.54 21.53 57.96C21.82 57.82 22.10 57.67 22.39 57.67C23.18 57.74 23.83 57.31 24.41 56.81C24.55 56.66 24.84 56.45 24.98 56.45C25.63 56.59 25.85 56.02 26.35 55.80C26.86 55.51 27.14 55.15 27.22 54.58C27.29 54.36 27.50 54.14 27.65 54.07C28.58 53.64 29.02 52.85 29.38 51.98C29.74 51.19 30.46 50.62 30.67 49.68L30.96 49.32C31.39 49.03 31.61 48.53 31.61 47.95C31.68 47.38 31.90 46.87 32.33 46.44L32.54 46.66C33.26 46.22 33.19 45.58 33.05 44.78C33.84 44.71 34.06 44.14 34.20 43.49C34.27 43.20 34.27 42.84 34.42 42.55C34.49 42.19 34.49 41.83 34.70 41.62C35.21 40.82 35.14 40.10 34.56 39.31C35.14 38.52 35.21 37.58 34.92 36.65C34.78 36 34.85 35.28 34.85 34.63C34.85 34.56 34.92 33.48 35.06 33.26C35.21 32.33 34.99 32.11 34.85 31.68C34.70 31.46 34.49 31.10 34.49 30.96C34.42 30.24 34.06 29.59 34.20 28.87C34.27 28.22 34.13 27.50 33.48 27.29C32.90 27.07 32.83 26.71 32.62 26.21C32.18 25.06 31.68 23.83 30.38 23.26C30.02 23.04 29.74 22.68 29.52 22.32C29.38 22.03 29.02 21.89 28.80 21.67C28.22 21.31 27.58 21.17 26.93 21.02C26.64 20.95 26.28 20.95 26.21 20.59C26.42 20.23 26.64 19.87 27.07 19.66C27.72 19.30 28.08 18.72 28.15 17.93C28.15 17.71 28.30 17.50 28.37 17.28L29.16 15.26C29.38 14.83 29.52 14.40 29.30 13.90C28.94 12.67 29.02 11.38 28.94 10.08C28.94 9.07 28.73 8.14 27.94 7.34C27.36 6.91 27.07 6.26 27.22 5.40C26.78 5.11 26.50 4.75 26.06 4.61C25.56 4.46 25.20 4.18 24.84 3.89C24.48 3.53 24.05 3.31 23.69 3.10C23.04 3.38 23.33 2.52 22.90 2.52C22.10 2.45 21.24 2.45 20.38 2.45C20.16 2.45 19.87 2.38 19.66 2.30L18.43 1.66C18.36 1.58 18.22 1.66 18.14 1.66C18.00 1.80 17.78 1.94 17.64 2.16ZM9.65 51.26C9.79 50.69 9.94 50.18 9.94 49.68C9.94 49.18 9.79 48.67 9.72 48.10C9.58 47.09 9.29 46.01 9.29 45.00C9.29 44.21 9.14 43.49 9.00 42.77C8.93 42.41 8.93 41.98 9.07 41.69C9.29 40.97 9.29 40.25 9.29 39.53C9.14 37.94 8.71 36.36 8.86 34.78C8.86 34.42 8.86 34.06 9.07 33.70C9.36 33.34 9.29 32.76 9.29 32.33C9.22 31.46 9.00 30.60 9.00 29.74C9.00 28.94 8.86 28.15 9.00 27.36C9.07 27.07 9.00 26.78 9.00 26.50C9.00 26.28 8.93 25.99 9.00 25.78C9.29 25.06 9.29 24.34 8.93 23.54C8.86 23.40 8.78 23.11 8.86 23.04C9.58 22.03 9.22 20.95 9.07 19.94C9.07 19.44 8.86 18.94 9.14 18.43C9.22 18.29 9.22 18.07 9.14 17.86C9.00 16.85 9.29 15.91 9.50 14.90C9.79 13.97 9.72 13.03 9.43 12.10C9.29 11.52 9.00 11.02 9.58 10.37C9.86 10.15 9.72 9.58 9.43 9.22L9.14 8.78C10.01 7.20 9.43 5.69 9.14 4.18C9.50 3.74 10.01 3.67 10.44 3.60C11.30 3.53 12.17 3.38 13.03 3.24C13.54 3.24 13.97 3.24 14.47 3.31C15.19 3.38 15.98 3.38 16.78 3.38C17.28 3.31 17.78 3.17 18.22 3.53C18.36 3.60 18.50 3.60 18.65 3.60C19.87 3.24 20.88 3.67 21.89 4.18C22.39 4.39 22.90 4.82 23.54 4.54C23.69 4.46 24.05 4.61 24.19 4.82C24.55 5.18 25.13 5.40 25.27 6.05C25.34 6.19 25.49 6.41 25.63 6.41C26.35 6.55 26.42 7.06 26.57 7.56C26.86 8.50 27.07 9.43 27.36 10.30C27.43 10.58 27.79 10.80 27.79 11.02C27.43 12.82 28.37 14.76 27.36 16.49C27.29 16.70 27.36 16.92 27.29 17.06C27.29 17.28 27.36 17.57 27.22 17.64C26.42 18.36 26.28 19.58 25.13 20.02C24.55 20.23 24.34 20.88 24.41 21.46C24.41 21.60 24.62 21.82 24.77 21.89C25.06 21.96 25.42 21.96 25.63 22.25C26.93 22.46 28.01 23.18 29.02 24.05C29.66 24.55 30.38 24.98 30.96 25.63C31.39 26.14 31.90 26.78 31.97 27.43C32.18 28.30 32.76 28.87 32.90 29.66C32.90 29.88 33.05 30.10 33.05 30.31C33.12 30.89 32.83 31.46 33.12 32.11C33.34 32.62 33.26 33.26 33.41 33.77L33.70 35.64C33.91 36.58 33.98 37.51 33.62 38.45C33.41 39.02 33.41 39.60 33.41 40.25C33.48 40.97 33.55 41.76 32.98 42.41C32.83 42.62 32.83 42.84 32.76 43.13C32.76 43.56 32.54 43.99 32.26 44.42C32.04 44.78 31.90 45.14 31.82 45.58C31.61 46.30 31.25 46.87 30.60 47.23C30.24 47.45 29.95 47.74 29.74 48.02C29.09 49.25 28.01 49.68 26.78 50.04C26.35 50.18 25.92 50.11 25.56 50.54C25.42 50.69 25.13 50.83 24.91 50.83C23.26 51.05 21.67 51.84 20.02 52.34C19.44 52.56 18.94 52.63 18.36 52.56C18.07 52.49 17.78 52.56 17.57 52.56C17.28 52.56 16.92 52.63 16.70 52.56C15.48 52.06 14.18 52.34 12.96 52.34C11.74 52.34 10.66 51.98 9.65 51.26ZM28.01 43.63C28.37 42.26 28.51 41.11 28.94 39.96C29.38 38.66 29.52 37.22 29.16 35.93C28.87 35.14 28.66 34.42 28.73 33.55C28.80 33.19 28.58 32.83 28.37 32.54C28.01 32.11 27.79 31.61 27.65 31.10C27.43 30.24 26.86 29.52 26.06 29.23C25.34 28.94 24.70 28.51 24.12 28.08C23.40 27.58 22.75 27.29 21.89 27.22C21.74 27.14 21.53 27.14 21.38 27.00C20.88 26.64 20.30 26.64 19.73 26.64C18.72 26.71 17.64 26.78 16.56 26.78C16.06 26.78 15.62 26.86 15.26 27.14C14.90 27.79 14.83 28.51 14.83 29.23C14.90 29.66 14.83 30.02 14.76 30.38C14.62 30.96 14.69 31.61 14.69 32.26C14.69 32.54 14.83 32.90 14.76 33.19C14.69 33.70 14.40 34.27 14.76 34.78C15.12 35.42 14.40 35.78 14.40 36.36C14.40 36.58 14.54 36.79 14.54 37.08C14.62 38.02 14.76 38.95 14.76 39.89C14.83 40.18 14.47 40.54 14.47 40.82C14.40 41.40 14.26 41.90 14.47 42.48C14.69 42.91 14.69 43.42 14.26 43.78C13.90 44.06 13.97 44.57 14.11 45.00C14.18 45.29 14.40 45.50 14.47 45.79C14.62 46.30 14.98 46.58 15.55 46.51C16.63 46.37 17.78 46.66 18.94 46.66C20.02 46.66 21.17 46.44 22.32 46.51C22.97 46.51 23.62 46.37 24.05 45.72C24.26 45.50 24.70 45.43 24.98 45.43C25.85 45.43 26.42 45.00 26.86 44.28C27.14 43.92 27.50 43.63 28.01 43.63ZM23.40 18.29C23.26 18.14 23.11 18.07 23.11 18C23.40 17.35 23.04 16.56 23.54 15.98L23.54 15.77C22.97 15.19 23.33 14.54 23.33 13.97C23.26 13.46 23.26 12.96 22.97 12.46C22.75 12.17 22.68 11.74 22.54 11.30C22.39 11.23 22.10 11.23 21.96 11.09C21.74 10.87 21.60 10.66 21.46 10.44C21.31 10.30 21.17 10.22 21.02 10.22C19.87 10.08 18.79 9.58 17.57 9.72C16.99 9.72 16.49 9.58 15.98 9.65C15.34 9.79 14.98 9.36 14.47 9.14C14.33 9.29 14.26 9.36 14.26 9.43C13.82 10.58 13.68 11.74 13.90 12.96C14.04 13.61 14.11 14.26 14.11 14.90C14.04 15.70 14.11 16.42 14.26 17.21C14.40 17.71 14.54 18.22 14.62 18.72C14.62 19.01 14.69 19.51 14.47 19.66C13.97 20.16 14.18 20.59 14.54 21.10C15.41 21.38 16.42 21.10 17.35 21.31C17.57 21.38 18.00 21.24 18.29 21.10C18.50 20.88 18.72 20.81 19.01 20.88C19.58 21.02 20.16 20.88 20.66 20.45ZM22.03 44.86C21.24 45.43 20.38 45.50 19.51 45.43L16.63 45.07C16.34 45.07 16.13 44.93 15.77 44.78C15.91 43.78 15.55 42.77 15.98 41.83C15.84 40.90 16.27 39.89 15.77 39.02C15.84 38.16 15.77 37.30 15.91 36.43C15.91 35.86 15.91 35.35 15.70 34.78L15.70 34.27C16.27 33.84 16.99 34.27 17.57 33.91L18.72 34.78C19.58 35.42 20.52 36.07 20.88 37.22C21.10 37.87 21.74 38.45 21.82 39.24C21.82 39.46 21.89 39.74 21.89 39.96C21.89 40.10 21.74 40.39 21.82 40.54C22.32 41.40 22.32 42.34 22.10 43.27C22.39 43.78 22.03 44.28 22.03 44.86ZM18.65 18.29C18.58 18.58 18.50 18.86 18.50 19.30C18.07 19.44 17.71 19.66 17.35 19.80C16.78 20.02 16.27 19.94 15.77 19.58L15.77 17.64L15.55 15.77C16.49 15.55 17.06 15.91 17.50 16.63C17.78 17.14 18.14 17.64 18.65 18.29Z"/></svg>