<svg xmlns="http://www.w3.org/2000/svg" xmlns:xlink="http://www.w3.org/1999/xlink" width="219" height="72.00000000000001"><path fill="#4db6ac" stroke="#00695c" d="M208.93 18.72C208.50 18.65 208.21 18.58 207.85 18.50C207.56 18.36 207.20 18.14 206.84 17.93C206.55 17.71 206.26 17.50 205.83 17.57C205.62 17.57 205.40 17.50 205.33 17.35C204.75 16.85 204.03 16.92 203.38 16.92C202.16 16.92 200.94 16.92 199.64 16.92C198.63 16.92 197.55 16.92 196.54 16.92C195.82 16.99 195.10 16.99 194.46 17.35C194.24 17.50 193.88 17.50 193.59 17.50C193.30 17.57 193.02 17.50 192.73 17.57C191.22 18.14 189.56 18.36 188.05 19.22C186.32 20.23 184.66 21.31 183.37 22.90C182.58 23.83 181.86 24.84 180.56 25.27C180.42 25.34 180.20 25.56 180.13 25.78C179.98 26.06 179.84 26.50 179.77 26.86C179.70 27.65 179.12 28.08 178.69 28.66C178.47 28.87 178.11 29.02 177.90 29.16C177.90 29.30 177.82 29.38 177.82 29.52C177.75 30.96 176.89 32.18 176.46 33.55C176.46 33.70 176.31 33.77 176.24 33.91C175.38 34.78 175.23 35.86 175.45 36.94C175.59 37.80 175.59 38.45 175.23 39.17C174.94 39.53 175.02 39.96 175.16 40.39C175.52 41.62 176.24 42.84 175.81 44.21C175.81 44.35 175.88 44.50 175.95 44.64C176.17 45.00 176.38 45.36 176.53 45.72C176.82 46.37 177.25 46.94 177.32 47.59C177.46 48.46 177.90 48.96 178.62 49.25C178.83 50.54 179.62 51.48 180.49 52.34C181.35 52.27 181.93 52.63 182.43 53.28C182.72 53.71 183.22 54.00 183.66 54.29C185.10 55.08 186.68 55.51 188.19 56.02C188.84 56.30 189.56 56.38 190.28 56.38C191.43 56.45 192.66 56.66 193.81 56.88C194.46 56.95 195.03 57.10 195.68 56.95C196.11 56.88 196.62 56.95 197.12 56.95C197.41 56.95 197.70 57.10 197.98 56.95C198.70 56.52 199.57 56.74 200.22 56.66C200.65 56.30 200.94 56.02 201.30 55.80C201.73 55.58 202.16 55.30 202.66 55.30C203.31 55.30 203.89 55.01 204.39 54.65C204.97 54.36 205.40 54.00 205.98 53.71C207.85 52.78 209.22 51.26 210.51 49.68C210.80 49.39 210.87 49.03 211.09 48.67C211.52 47.88 211.81 46.94 212.74 46.44C212.89 46.37 212.96 46.15 213.10 46.01C213.39 45.43 213.68 44.78 213.97 44.21C214.26 43.78 214.47 43.13 214.90 42.84C215.62 42.41 215.84 41.83 215.91 41.11C216.06 40.03 216.20 39.02 216.85 38.09C217.06 37.80 217.14 37.30 217.14 36.86C217.28 35.21 217.50 33.55 217.50 31.90C217.50 31.10 217.57 30.31 217.42 29.52C217.28 28.80 217.28 28.01 216.78 27.36C216.70 27.14 216.70 26.86 216.56 26.64C216.49 26.28 216.34 25.92 216.13 25.63C215.62 24.84 215.26 24.05 214.47 23.47C214.18 23.26 213.97 22.90 213.75 22.61C213.54 22.18 213.25 21.89 212.82 21.89C212.53 21.89 212.31 21.82 212.24 21.53C212.17 21.17 212.02 21.02 211.66 20.88C211.23 20.74 210.87 20.52 210.51 20.09C210.44 19.94 210.22 19.87 210.08 19.80C209.43 19.66 209.07 19.30 208.93 18.72ZM215.41 39.74C214.98 39.89 214.62 40.25 214.33 40.82C214.11 41.33 213.61 41.62 213.68 42.34C213.68 42.62 213.39 42.98 213.18 43.34C213.03 43.70 212.74 43.99 212.60 44.28C211.74 46.22 210.08 47.23 208.35 48.24C207.70 48.67 206.91 48.96 206.34 49.54C205.76 49.97 205.33 50.40 204.61 50.47C204.46 50.47 204.25 50.54 204.10 50.69C203.46 51.12 202.81 51.26 202.09 51.19C201.94 51.19 201.73 51.19 201.66 51.26C200.58 51.84 199.50 51.55 198.42 51.48C197.70 51.41 197.05 51.19 196.33 51.34C196.18 51.34 195.97 51.26 195.90 51.19C195.32 50.90 194.82 50.98 194.24 51.12C193.52 51.41 193.02 51.19 192.66 50.54C192.15 50.54 191.79 50.98 191.29 50.69C190.93 50.47 190.42 50.47 190.28 49.97C190.28 49.82 190.14 49.68 189.99 49.68C188.98 49.68 188.19 48.89 187.11 48.89C186.90 48.10 186.46 47.59 185.82 47.23C185.31 46.87 184.81 46.44 184.38 46.01C184.09 45.79 183.80 45.58 183.44 45.43C182.86 45.22 182.43 44.64 182.29 43.99C182.22 43.85 182.29 43.63 182.14 43.56C181.35 42.48 181.14 41.11 180.42 39.96C180.20 39.53 179.98 39.02 180.27 38.45C180.42 38.23 180.34 37.94 180.27 37.66C180.27 37.30 180.20 37.01 180.13 36.65C179.98 35.78 179.91 34.99 180.20 34.13C180.34 33.70 180.56 33.19 180.13 32.62C179.84 32.26 180.20 31.68 180.49 31.54C180.85 31.25 180.92 30.96 180.78 30.67C180.56 30.02 180.78 29.38 180.99 28.80C181.64 26.93 182.79 25.42 183.94 23.90C184.09 23.69 184.30 23.62 184.52 23.47C185.24 22.97 185.82 22.46 185.82 21.60C186.82 21.31 187.62 20.88 188.34 20.30C188.55 20.09 188.98 19.87 189.34 19.87C189.85 19.80 190.21 19.58 190.57 19.30C191 19.01 191.43 18.79 191.86 18.65C192.22 18.43 192.58 18.36 193.09 18.58C193.74 18.94 194.53 18.72 195.18 18.36C195.82 18.07 196.47 17.86 197.19 18.29C197.41 18.43 197.70 18.36 197.91 18.29C198.56 18.22 199.28 18.07 200 17.86C200.86 17.71 201.80 17.50 202.59 18C203.46 17.86 204.10 18.72 204.97 18.36C205.69 18.72 206.48 19.01 207.27 19.30C207.34 19.58 207.42 19.94 207.49 20.30C208.14 20.30 208.86 20.38 209.43 20.38C210.01 20.66 209.94 21.53 210.58 21.67C210.94 21.82 211.30 22.03 211.88 22.32C212.24 22.90 212.74 23.62 213.54 24.19C214.11 24.62 214.62 25.13 214.69 25.92C214.76 26.28 215.05 26.57 215.34 26.64C215.77 26.71 215.84 27.07 215.84 27.36C215.91 28.15 215.91 28.87 215.91 29.66C215.91 30.10 216.06 30.53 216.34 30.74C216.34 32.76 216.27 34.78 216.20 36.79C215.98 37.22 215.41 37.51 215.41 38.09C215.41 38.59 215.41 39.10 215.41 39.74ZM194.17 23.11C194.02 22.97 193.81 22.82 193.59 22.68C193.59 22.68 193.30 22.82 193.30 22.90C193.52 23.47 193.16 23.54 192.73 23.54C191.94 23.47 191.22 23.69 190.78 24.26C190.42 24.84 189.78 25.13 189.27 25.56C188.41 26.28 187.40 26.86 186.82 27.86C186.32 28.66 185.96 29.45 185.53 30.24C185.17 30.89 184.59 31.54 185.17 32.33C185.24 32.40 185.17 32.54 185.17 32.62C185.02 33.26 185.02 33.98 184.81 34.63C184.45 35.93 184.74 37.01 185.53 38.09C185.67 38.30 185.89 38.59 185.82 38.88C185.82 39.82 186.39 40.32 187.11 40.75C187.18 40.82 187.40 40.97 187.40 40.97C187.26 41.62 187.69 41.69 188.05 41.98C188.34 42.19 188.48 42.55 188.77 42.77C189.20 42.98 189.49 43.20 189.63 43.70C189.63 43.78 189.78 43.92 189.92 43.92C190.71 43.99 191.22 44.50 191.79 44.93C192.22 45.29 192.73 45.58 193.30 45.65C194.31 45.86 195.39 45.94 196.40 46.30C197.41 46.73 198.42 46.66 199.42 46.58C200.36 46.58 201.22 46.37 202.02 45.86C202.45 45.58 202.95 45.36 203.38 45.14C203.53 45.22 203.67 45.22 203.74 45.22C204.75 45.50 204.97 45.43 205.33 44.57C205.47 44.14 205.76 43.92 206.12 43.70C206.62 43.49 207.20 43.13 207.13 42.62C207.13 42.12 207.34 41.90 207.56 41.62C208.14 40.82 208.50 39.89 208.78 38.88C208.93 38.45 209.14 38.02 209.29 37.58C209.72 36.79 210.44 36 210.01 34.99C209.94 34.92 210.01 34.92 210.01 34.85C210.15 34.20 210.15 33.55 210.01 32.83C210.01 32.69 210.01 32.54 210.08 32.40C210.51 31.61 210.15 30.89 209.79 30.17C209.50 29.52 209.07 29.02 208.78 28.51C208.50 27.86 208.06 27.29 207.78 26.64C207.34 25.56 206.26 25.13 205.62 24.19C205.54 24.12 205.47 24.05 205.40 24.05C204.82 24.12 204.39 23.98 204.10 23.54C203.31 23.69 202.74 23.18 202.09 22.90C201.51 22.68 200.86 22.68 200.36 22.39C199.50 21.96 199.35 21.89 198.63 22.39C198.20 22.82 197.70 22.90 197.12 22.75C196.11 22.54 195.10 22.54 194.17 23.11ZM193.95 26.64C194.24 26.64 194.67 26.57 195.18 26.57C195.25 26.50 195.54 26.50 195.54 26.57C195.90 27.14 196.40 27.00 196.98 27.00C197.48 27.00 197.91 27.36 198.34 27.65C198.78 27.86 199.14 28.30 199.57 28.44C200.36 28.73 200.79 29.38 201.01 30.10C201.15 30.60 201.37 30.89 201.87 31.18C202.09 31.32 202.30 31.68 202.45 31.97C202.88 32.76 203.24 33.62 203.67 34.49C203.67 34.56 203.74 34.63 203.82 34.70C203.96 35.21 203.53 35.64 203.82 36.14C204.10 36.43 204.10 36.94 204.18 37.37C204.32 37.73 204.32 38.09 204.39 38.45C204.54 39.17 204.54 39.74 204.18 40.39C203.96 40.82 203.96 41.26 204.32 41.76C204.68 42.19 204.25 43.27 203.74 43.63C203.10 44.06 202.45 44.42 201.66 44.57C201.37 44.64 201.01 44.71 200.72 44.86C199.78 45.29 198.85 45.22 197.91 45.22C197.55 45.29 197.26 45.14 196.90 45.14C196.04 45.14 195.10 45.29 194.38 44.57C194.24 44.42 193.95 44.35 193.66 44.28C192.73 44.21 192.01 43.70 191.14 43.34C190.78 43.27 190.42 42.98 190.28 42.70C189.92 41.98 189.06 41.69 188.98 40.82C188.55 40.46 188.19 39.96 187.76 39.67C186.68 38.95 186.32 37.94 186.39 36.72C186.39 36.36 186.39 36.14 186.18 35.86C185.96 35.64 185.82 35.21 185.82 34.92C185.89 34.27 185.96 33.55 186.03 32.90C186.25 31.61 186.90 30.53 187.26 29.30C187.47 28.66 187.90 28.30 188.48 28.15C188.98 28.01 189.42 27.79 189.78 27.50C189.92 27.36 190.06 27.22 190.21 27.22C191.36 27.00 192.51 26.50 193.95 26.64Z"/></svg>