<svg xmlns="http://www.w3.org/2000/svg" xmlns:xlink="http://www.w3.org/1999/xlink" width="261" height="72.00000000000001"><path fill="#4db6ac" stroke="#00695c" d="M234.77 57.10C235.13 57.17 235.34 57.17 235.56 57.17C236.42 57.31 237.29 57.46 238.15 57.10C239.52 56.59 241.03 56.81 242.47 56.30C242.90 56.16 243.41 56.38 243.77 55.94C244.34 56.02 244.78 55.66 245.21 55.44C245.57 55.22 246 55.15 246.43 55.01C246.65 54.94 246.94 54.94 247.08 54.79C247.51 54.14 248.16 53.93 248.74 53.50C248.95 53.35 249.17 53.21 249.24 53.06C249.60 52.27 250.18 51.91 250.82 51.62C251.40 51.26 251.90 50.83 252.34 50.33C252.48 50.11 252.62 49.97 252.84 49.82C253.78 49.32 254.21 48.24 255.07 47.66C255.22 47.59 255.22 47.45 255.29 47.30C255.43 46.66 255.79 46.15 256.22 45.72C256.51 45.29 256.73 44.86 256.94 44.42C257.09 44.14 257.16 43.70 257.38 43.42C257.88 42.84 258.10 42.19 258.24 41.47C258.38 40.97 258.53 40.46 258.74 40.03C259.46 38.66 259.82 37.30 259.97 35.78C259.97 35.28 259.97 34.85 259.82 34.34C259.68 33.91 259.61 33.34 259.75 32.83C259.82 32.40 259.82 32.11 259.61 31.75C259.46 31.54 259.39 31.18 259.39 30.96C259.39 29.66 258.53 28.58 258.46 27.36C258.46 27.29 258.31 27.22 258.31 27.14C257.52 26.21 257.16 25.13 256.87 23.98C256.80 23.69 255.86 22.61 255.72 22.68C255.07 22.97 255.07 22.32 254.78 22.10C254.64 22.03 254.64 21.82 254.57 21.74C254.42 21.17 254.06 20.81 253.42 20.81C252.98 20.81 252.62 20.59 252.55 20.23C252.34 19.80 252.05 19.73 251.69 19.58C250.68 19.15 249.60 19.22 248.59 19.01C248.38 19.01 248.09 19.08 247.87 19.15C247.01 19.51 246.14 19.44 245.21 19.15C244.70 19.01 244.06 18.94 243.62 19.30C243.26 19.66 242.98 19.66 242.62 19.66C241.61 19.80 240.60 19.80 239.74 20.38C239.45 20.59 239.02 20.59 238.66 20.66C238.30 20.74 237.94 20.74 237.65 20.88C237.07 21.38 236.50 21.74 235.78 21.82C235.34 22.39 234.70 22.25 234.05 22.18C233.98 21.74 233.98 21.31 233.90 20.88C233.83 20.52 233.62 20.09 233.47 19.66C233.26 19.58 232.97 19.44 232.68 19.37C231.82 19.37 230.95 19.30 230.09 19.30C229.73 19.30 229.44 19.37 229.22 19.66C229.08 19.80 228.94 19.87 228.72 19.80C228.50 19.73 228.29 19.66 228.14 19.73C227.21 20.30 226.27 20.81 225.41 21.53C224.90 21.96 224.54 22.61 224.11 23.18C223.90 23.54 223.61 23.90 223.18 23.98C222.38 24.19 221.81 24.70 221.59 25.49C221.81 26.71 221.74 28.01 221.52 29.30C221.38 29.74 221.45 30.31 221.52 30.82C221.95 31.03 221.74 31.46 221.81 31.82C221.81 32.54 221.74 33.26 221.59 33.91C221.45 34.78 221.45 35.64 221.52 36.50C221.59 37.22 221.52 37.94 221.45 38.66C221.38 39.17 221.23 39.67 221.23 40.18C221.30 40.97 221.38 41.83 221.45 42.62C221.52 43.27 221.66 43.92 221.52 44.50C221.38 45.07 221.38 45.58 221.38 46.15C221.38 46.44 221.52 46.80 221.38 47.02C221.09 47.74 221.30 48.46 221.45 49.10C221.59 49.68 221.23 50.26 221.45 50.62C221.66 51.19 221.52 51.77 221.66 52.34C222.02 53.57 221.81 54.79 221.88 56.02C221.95 56.38 221.88 56.81 222.10 57.17C222.53 57.96 222.60 58.82 222.46 59.76C222.46 60.12 222.53 60.48 222.53 60.91C222.60 61.78 222.67 62.57 222.67 63.43C222.67 63.58 222.74 63.72 222.74 63.86C223.18 65.23 222.96 66.60 223.10 67.97C223.10 68.11 223.03 68.26 222.96 68.40C222.74 69.19 222.60 70.06 223.18 70.85C223.32 70.99 223.32 71.28 223.25 71.50C222.96 72.14 223.25 72.86 223.25 73.51C223.25 73.80 223.54 74.09 223.68 74.30C224.90 74.02 224.90 74.02 226.27 74.30C226.49 74.30 226.78 74.30 226.99 74.23C227.28 74.23 227.57 74.09 227.78 74.09C228.22 74.09 228.58 74.02 228.86 73.80C229.37 73.58 229.87 73.44 230.38 73.22C230.66 73.08 231.02 72.94 231.17 72.65C231.82 71.57 233.11 70.99 233.62 69.70C234.41 69.12 234.62 68.26 234.77 67.32C234.84 66.89 234.91 66.53 234.98 66.10C235.06 65.30 235.27 64.58 234.70 63.86C234.62 63.79 234.70 63.58 234.70 63.36C234.77 62.86 234.84 62.35 234.84 61.78C234.77 61.20 234.70 60.70 234.62 60.12C234.62 59.18 234.55 58.18 234.77 57.10ZM233.04 57.17C233.40 58.18 233.40 59.26 233.26 60.34C233.26 60.70 233.26 61.06 233.18 61.34C233.11 61.99 233.98 62.42 233.54 63.07C233.18 63.72 233.33 64.30 233.62 64.87C233.69 65.02 233.54 65.23 233.54 65.45C233.62 65.95 233.47 66.46 233.76 66.96C233.90 67.25 233.76 67.68 233.40 68.04C232.18 67.61 230.88 67.75 229.66 68.11C229.37 67.46 229.15 66.96 229.01 66.46C228.86 66.17 228.86 65.81 228.79 65.45C228.72 64.22 228.86 63.00 228.58 61.78C228.43 61.42 228.36 61.13 228.29 60.77C228.29 60.55 228.22 60.34 228.29 60.12C228.50 59.11 228.58 58.03 228.36 57.02C228.29 56.81 228.36 56.66 228.36 56.45C228.50 55.44 228.72 54.43 228.14 53.42C227.93 53.14 227.71 52.56 228.36 52.20C228.72 52.06 228.65 51.55 228.50 51.19C228.36 50.83 228.14 50.47 227.93 50.18C228.14 49.32 228.29 48.46 228.07 47.59C227.93 47.16 227.86 46.58 228.14 46.08C228.36 45.58 228.29 45.00 228.14 44.50C227.93 44.06 227.93 43.63 228 43.13C228.07 42.62 228.14 42.19 227.86 41.76C227.57 41.40 227.64 40.97 227.71 40.61C227.93 40.03 227.86 39.38 227.78 38.81C227.64 38.02 227.64 37.30 227.93 36.50C228.22 35.71 228.22 34.92 228 33.98C227.78 32.83 227.64 31.54 227.78 30.31C227.86 30.17 227.86 30.02 227.78 29.88C227.35 28.94 227.57 28.01 227.86 27.07C227.93 26.86 228 26.50 227.86 26.28C227.28 25.06 227.71 23.83 227.71 22.61C227.64 22.10 227.71 21.67 227.78 21.17C227.93 21.10 228.14 21.10 228.29 21.02C229.22 20.30 230.38 20.52 231.46 20.52C232.03 20.52 232.32 20.81 232.25 21.46C232.25 22.46 232.46 23.40 232.61 24.41C233.04 24.62 233.40 24.77 233.83 24.41C234.26 24.05 234.77 23.76 235.20 23.47C235.42 23.33 235.63 23.26 235.85 23.26C236.28 23.26 236.28 22.90 236.42 22.61C236.71 22.61 237 22.54 237.36 22.46C237.79 22.39 238.22 22.39 238.44 21.96C238.51 21.82 238.66 21.74 238.80 21.67C239.66 21.46 240.53 21.17 241.39 21.02C241.82 20.95 242.26 20.95 242.62 20.66C242.69 20.59 242.90 20.52 242.98 20.59C243.41 20.88 243.77 20.66 244.20 20.59C244.85 20.45 245.42 20.30 246.07 20.45C246.36 20.52 246.79 20.38 247.15 20.30C247.87 20.16 248.52 20.16 249.24 20.38C250.10 20.59 250.90 21.31 251.90 21.17C252.12 21.17 252.34 21.38 252.55 21.53C252.91 21.89 253.20 22.32 253.63 22.61C253.92 22.90 254.21 23.11 254.42 23.47C254.50 23.69 254.71 23.90 254.86 23.98C255.50 24.05 255.72 24.55 256.08 24.91C256.30 25.13 256.44 25.49 256.37 25.85C256.22 26.35 256.51 26.71 256.73 27.14C256.87 27.58 256.80 28.15 257.38 28.37C257.45 28.37 257.52 28.58 257.59 28.66C257.95 29.95 258.31 31.25 258.67 32.54C258.74 32.98 258.82 33.41 258.67 33.84C258.46 34.42 258.60 35.06 258.53 35.64C258.46 36.07 258.60 36.50 258.17 36.86C258.10 36.94 258.02 37.08 258.02 37.22C257.88 38.16 257.74 39.10 257.66 40.03C257.59 40.32 257.59 40.54 257.52 40.75C256.44 42.41 255.50 44.14 254.21 45.58C253.78 46.01 253.27 46.22 252.77 46.58C252.41 46.87 251.98 47.09 251.69 47.45C251.26 47.88 250.97 48.17 250.32 48.10C250.18 48.10 249.96 48.17 249.96 48.24C249.46 49.39 248.02 48.96 247.37 49.75C247.22 49.97 246.79 49.90 246.50 49.90C245.57 49.90 244.70 49.90 244.06 50.69C243.55 50.76 243.12 51.19 242.54 50.90C242.33 50.76 242.04 50.83 241.90 50.90C241.46 51.19 241.03 51.12 240.60 51.12C239.95 51.05 239.30 50.90 238.66 50.76C238.15 50.69 237.58 50.33 237 50.62C236.28 50.40 235.49 50.26 234.70 49.97C234.48 49.90 234.34 49.54 234.26 49.46C233.62 49.46 233.11 49.46 232.54 49.46C232.75 51.55 232.97 53.57 233.18 55.51C233.18 56.09 233.18 56.45 233.04 57.17ZM234.77 45.00C235.27 45.00 235.70 44.93 236.14 45.00C236.50 45.07 236.93 45.22 237.36 45.36C237.72 45.43 238.08 45.58 238.44 45.58C239.23 45.50 239.95 45.50 240.74 45.58C241.10 45.58 241.54 45.65 241.90 45.50C243.26 45.14 244.63 44.93 246.07 44.71C247.08 44.57 247.80 43.85 248.74 43.56C248.88 43.49 248.95 43.42 248.95 43.34C249.24 42.84 249.74 42.62 250.18 42.41C250.61 42.19 250.97 41.90 251.26 41.47C251.62 40.97 251.98 40.46 252.34 39.96C252.70 39.53 252.77 38.74 253.63 38.81C253.70 38.88 253.85 38.66 253.85 38.52C254.14 37.51 254.42 36.50 254.71 35.50C254.71 35.35 254.71 35.21 254.71 35.06C254.42 34.20 254.57 33.34 254.42 32.47C254.28 31.68 254.06 30.89 253.78 30.17C253.56 29.52 252.98 29.09 252.77 28.44C252.55 27.65 251.83 27.43 251.40 26.86C250.61 25.92 249.38 25.49 248.30 24.84C248.23 24.84 248.16 24.84 248.09 24.84C247.15 25.06 246.29 24.70 245.64 24.19C244.85 23.69 244.20 23.69 243.34 23.83C242.26 24.05 241.18 24.55 239.95 24.34C239.74 24.34 239.38 24.48 239.23 24.70C239.02 25.27 238.51 25.34 238.08 25.27C237.65 25.27 237.36 25.34 237 25.49C236.35 25.85 235.70 26.14 235.13 26.50C234.77 26.71 234.41 26.93 234.19 27.22C233.98 27.50 233.76 27.94 233.83 28.22C234.19 29.81 233.98 31.39 233.90 32.90C233.90 33.19 233.90 33.41 234.05 33.62C234.55 34.56 234.34 35.57 234.19 36.58C234.05 37.37 233.83 38.23 234.19 39.10C234.19 39.17 234.19 39.24 234.19 39.31C233.69 40.03 233.98 40.82 233.98 41.54C233.98 42.34 234.05 43.06 233.76 43.85C234.05 44.21 234.41 44.57 234.77 45.00ZM235.20 32.18C235.70 31.54 236.50 31.32 237.22 31.18C238.08 31.03 238.94 30.89 239.81 31.10C240.17 31.18 240.67 31.25 240.96 30.74C241.90 30.60 242.90 30.38 243.62 31.18C244.13 31.75 244.63 31.82 245.28 31.90C245.50 32.11 245.57 32.47 245.78 32.69C246.07 32.98 246.07 33.26 246.22 33.55C246.36 33.84 246.72 33.98 246.94 34.20C247.30 34.78 247.37 35.50 247.94 35.93C248.02 36 248.09 36.14 248.09 36.29C248.16 36.86 248.23 37.44 248.23 38.02C248.30 38.45 248.02 38.88 248.16 39.31C248.45 40.46 247.73 41.40 247.80 42.55C247.30 42.70 246.86 42.84 246.50 43.06C246.22 43.20 245.93 43.49 245.64 43.85C244.78 43.92 243.70 43.49 243.12 44.64C242.11 44.57 241.18 44.57 240.24 44.50C239.95 44.50 239.74 44.64 239.52 44.64C238.87 44.78 238.30 44.71 237.94 44.06C237.43 44.06 236.93 44.28 236.50 43.70C236.28 43.34 235.70 43.27 235.20 43.13C235.20 42.70 235.13 42.26 235.20 41.90C235.49 41.04 235.42 40.18 235.27 39.31C235.20 38.95 235.34 38.52 235.34 38.09C235.27 37.73 235.13 37.37 235.20 37.01C235.42 35.42 235.06 33.84 235.20 32.18Z"/></svg>