<svg xmlns="http://www.w3.org/2000/svg" xmlns:xlink="http://www.w3.org/1999/xlink" width="141.2" height="72.00000000000001"><path fill="#4db6ac" stroke="#00695c" d="M134.35 48.53C134.06 48.17 134.06 47.95 134.35 47.74C135.07 47.09 135.07 47.09 135.14 46.66C135.22 46.37 135.22 46.08 135.36 45.79C136.08 44.50 136.66 43.13 137.66 42.05C138.10 41.62 138.31 41.11 138.24 40.54C138.24 40.18 138.17 39.82 138.31 39.53C138.53 39.17 138.46 38.95 138.38 38.59C138.31 38.30 138.31 38.02 138.31 37.73C138.31 36.72 138.24 35.71 138.17 34.70C138.17 34.56 138.10 34.34 138.17 34.20C138.46 33.62 138.10 33.12 138.10 32.62C137.95 31.10 137.30 29.81 136.37 28.66C135.72 27.79 135.07 27.00 134.35 26.28C134.06 25.92 133.63 25.63 133.20 25.42C131.98 24.77 130.75 24.19 129.38 23.90C128.09 23.76 127.01 23.04 125.93 22.39C125.93 22.10 125.93 21.82 126 21.60C126.14 20.23 126.58 19.01 128.09 18.43C128.88 18.14 129.53 17.50 130.25 16.99C130.90 16.56 131.47 16.27 132.19 16.13C132.84 16.06 133.49 15.98 134.14 15.91C134.50 15.91 134.78 15.98 135.14 16.06C135.94 16.20 136.30 16.06 136.51 15.26C136.58 14.90 136.73 14.54 136.73 14.11C136.94 13.03 137.95 12.31 138.02 11.16C138.10 11.02 138.24 10.80 138.38 10.66C138.74 10.30 139.10 9.94 139.54 9.58C139.54 9.07 139.61 8.57 139.54 8.06C139.54 7.63 139.54 7.20 139.32 6.91C138.89 6.26 138.96 5.54 138.96 4.82C138.96 4.61 138.89 4.39 138.89 4.18C138.38 4.18 137.95 4.18 137.52 4.18C137.09 4.18 136.51 4.25 136.15 4.10C135.36 3.74 134.50 3.89 133.70 3.82C132.98 3.74 132.34 3.96 131.62 3.89C131.04 3.89 130.39 4.03 130.03 4.39C129.53 4.75 129.17 4.82 128.59 4.68C128.02 4.54 127.37 4.32 126.79 4.82C126.72 4.90 126.58 4.90 126.43 4.90C125.71 4.97 125.14 5.26 124.63 5.76C124.42 5.90 124.13 5.98 123.91 6.12C123.70 6.26 123.55 6.62 123.34 6.70C122.69 7.06 121.90 7.27 121.32 7.70C120.67 8.06 120.17 8.71 119.59 9.22C119.52 9.22 119.52 9.22 119.45 9.29C118.22 9.79 117.50 10.87 116.86 12.02C116.57 12.46 116.50 13.10 115.78 13.18C115.70 13.18 115.63 13.39 115.49 13.54C115.34 13.82 115.20 14.11 114.98 14.40C114.48 15.19 114.05 15.98 113.76 16.92C113.54 17.64 113.47 18.58 112.61 19.01C112.54 19.01 112.46 19.22 112.46 19.37C112.32 19.87 112.10 20.30 112.25 20.88C112.39 21.53 112.39 22.18 111.74 22.68C111.60 22.90 111.53 23.18 111.53 23.47C111.38 24.48 111.38 25.49 111.31 26.50C111.24 26.93 111.31 27.29 111.53 27.58C112.10 28.15 112.03 28.87 111.82 29.52C112.68 30.53 113.47 31.46 114.05 32.54C114.41 33.19 114.77 33.70 115.56 33.84C115.70 33.84 115.78 33.91 115.92 33.98C116.86 34.49 117.72 34.99 118.66 35.50C118.80 35.57 119.02 35.64 119.16 35.64C119.95 35.71 120.74 35.78 121.32 36.50C121.46 36.65 121.75 36.65 121.97 36.72C122.18 36.72 122.47 36.79 122.69 36.86C123.62 37.58 124.56 38.30 125.14 39.46C125.71 40.61 126 41.83 125.64 43.20C125.14 43.49 124.63 43.63 124.06 43.27C123.84 43.06 123.55 43.06 123.26 43.06C122.98 43.13 122.62 43.20 122.26 43.20C121.32 43.13 120.31 42.98 119.30 42.91C118.37 42.91 117.65 42.55 116.93 42.05C116.71 41.98 116.50 41.83 116.28 41.69C115.99 41.98 115.78 42.19 115.56 42.48C115.42 42.62 115.42 42.91 115.27 42.91C114.91 42.98 114.70 43.34 114.41 43.63C114.12 43.78 113.83 43.99 113.62 44.14C113.26 44.35 113.40 44.86 112.97 45.00C112.61 45.14 112.39 45.50 112.25 45.86C111.89 46.44 111.46 46.80 110.81 47.02C110.30 47.16 109.87 47.45 109.66 47.88C109.80 48.67 109.94 49.32 110.09 50.04C110.16 50.40 110.16 50.83 110.02 51.19C109.58 52.13 109.66 53.14 109.51 54.14C109.44 54.86 109.44 55.58 109.73 56.30C110.59 56.88 111.10 55.87 111.89 55.80C112.03 55.80 112.25 55.87 112.54 55.87C113.26 55.94 114.05 56.02 114.77 56.16C115.42 56.38 116.21 56.45 116.93 56.16C118.01 55.73 119.16 55.94 120.31 55.66C120.46 55.58 120.74 55.58 120.82 55.73C121.18 56.09 121.46 55.87 121.82 55.73C122.11 55.66 122.40 55.66 122.69 55.58C123.26 55.44 123.91 55.30 124.49 55.15C124.92 54.43 125.71 54.50 126.36 54.36C126.94 54.22 127.44 54.07 127.87 53.86C128.23 53.71 128.59 53.50 128.81 53.21C129.17 52.56 129.74 52.13 130.54 52.06C130.68 50.90 131.47 50.47 132.34 50.04C132.41 49.97 132.41 49.97 132.48 49.97C133.27 49.68 133.85 49.18 134.35 48.53ZM121.68 16.42C121.68 17.06 121.68 17.71 121.68 18.36C122.33 18.86 122.69 19.58 122.76 20.45C122.76 20.95 122.90 21.38 123.34 21.67C123.48 21.74 123.55 21.96 123.62 22.18C123.91 23.11 124.56 23.54 125.42 23.83C126.07 23.98 126.72 24.12 127.37 24.34C128.09 24.62 128.81 24.91 129.46 25.20C130.10 25.49 130.61 25.85 131.26 26.14C132.05 26.42 132.70 27.00 133.42 27.50C133.63 27.65 133.92 27.94 134.14 27.94C134.78 27.94 135.07 28.37 135.36 28.80C135.50 29.09 135.58 29.45 135.79 29.66C136.58 30.74 136.80 32.04 137.02 33.34C137.09 33.70 137.02 34.06 137.38 34.34C137.66 34.70 137.45 35.21 137.38 35.64C137.30 36.29 137.23 36.94 137.16 37.58C137.66 38.23 137.09 38.88 137.09 39.53C137.09 40.18 136.87 40.75 136.44 41.33C136.22 41.62 136.15 42.05 136.01 42.41C135.29 43.78 134.57 45.07 133.06 45.79C132.70 46.01 132.34 46.30 131.90 46.58C131.47 46.94 130.97 47.30 130.54 47.59C130.46 47.66 130.32 47.66 130.32 47.74C129.67 49.10 128.38 48.82 127.30 48.82C126 48.74 124.70 49.10 123.48 49.10C122.98 49.46 122.40 49.18 121.90 49.18C121.54 49.18 121.18 49.03 120.82 49.18C120.60 49.32 120.31 49.18 120.10 49.18C118.94 48.96 117.86 48.89 116.64 49.32C116.42 49.10 116.14 48.82 115.85 48.60C115.85 48.46 115.85 48.31 115.92 48.24C116.35 47.59 116.57 46.94 116.42 46.08C116.35 45.79 116.42 45.43 116.42 45.14C116.35 44.42 116.64 43.92 117.14 43.63C118.15 43.70 119.09 43.85 120.02 43.92C120.60 44.06 121.18 43.99 121.68 44.42C121.97 44.71 122.47 44.71 122.76 44.50C123.41 43.92 124.20 44.06 124.92 44.14C125.71 44.28 126.50 44.21 127.15 43.70C127.44 43.49 127.73 43.34 128.02 43.27C128.30 43.13 128.66 42.91 128.81 42.70C129.31 41.98 130.03 41.69 130.82 41.26C131.18 40.68 131.04 39.74 131.90 39.46C131.98 39.02 131.98 38.59 131.98 38.23C132.05 37.58 131.98 37.01 131.54 36.50C131.26 36.14 131.04 35.64 130.90 35.21C130.75 34.63 130.46 34.13 130.03 33.77C129.10 32.90 128.16 32.11 127.15 31.39C126.94 31.18 126.65 31.03 126.50 30.67C126.36 30.53 126 30.31 125.78 30.31C124.99 30.31 124.42 29.95 123.77 29.52C123.26 29.16 122.62 28.94 122.04 28.80C121.54 28.66 121.25 28.58 121.03 28.15C120.74 27.72 120.38 27.43 120.02 27.07C119.74 26.86 119.52 26.57 119.16 26.42C118.08 25.92 117.94 25.85 117.86 24.91C117.86 24.55 117.72 24.34 117.50 24.05C117.14 23.69 116.86 23.18 116.64 22.75C116.28 22.03 116.06 21.31 116.28 20.52C116.35 19.94 116.64 19.44 115.99 19.01C115.85 18.94 115.92 18.65 115.92 18.43C115.85 18.07 115.85 17.71 115.85 17.28C115.85 16.78 115.70 16.27 116.28 15.91C116.35 14.83 117.14 14.04 117.36 12.96C117.43 12.38 117.79 11.95 118.37 11.66C118.94 11.45 119.09 11.02 119.02 10.37C120.10 9.94 120.96 9.29 121.82 8.64C122.26 8.28 122.69 7.92 123.26 7.78C123.55 7.70 123.84 7.49 123.98 7.27C124.49 6.62 125.28 6.48 126 6.41C126.36 6.41 126.79 6.34 127.15 6.34C127.37 6.34 127.58 6.26 127.73 6.05C128.23 5.40 129.02 5.40 129.67 5.26C129.82 5.26 129.96 5.33 130.10 5.40C130.54 5.62 130.97 5.47 131.33 5.26C131.90 4.82 132.55 4.75 133.20 4.90C133.56 4.97 133.99 4.90 134.35 4.97C134.86 5.04 135.43 5.04 135.86 5.18C136.51 5.47 137.09 5.54 137.74 5.33C137.74 6.26 137.88 7.13 138.24 7.92C138.38 8.21 138.02 8.57 137.66 8.57C137.09 8.57 136.58 8.42 136.15 7.99C135.72 7.99 135.29 8.06 134.86 8.14C134.71 8.14 134.57 8.14 134.42 8.14C134.06 8.28 133.63 8.57 133.27 8.64C132.84 8.71 132.41 8.57 131.98 8.50C131.76 8.50 131.62 8.71 131.47 8.86C131.18 9.07 130.75 9.22 130.39 9.22C128.74 9.22 128.02 9.36 126.79 10.08C126.36 10.37 125.86 10.58 125.78 11.23C125.78 11.38 125.57 11.52 125.42 11.52C124.78 11.74 124.49 12.17 124.13 12.67C123.91 12.96 123.70 13.32 123.48 13.61C123.05 14.04 122.76 14.62 122.54 15.19C122.33 15.55 122.04 15.98 121.68 16.42Z"/></svg>