<svg xmlns="http://www.w3.org/2000/svg" xmlns:xlink="http://www.w3.org/1999/xlink" width="173" height="72.00000000000001"><path fill="#4db6ac" stroke="#00695c" d="M162.44 36.07C162.44 35.06 162.44 33.98 162.37 32.90C163.16 32.83 163.88 32.83 164.38 32.18C164.46 32.04 164.67 32.04 164.89 31.97C165.18 31.90 165.46 31.82 165.68 31.61C166.26 30.96 167.05 30.89 167.91 30.82C168.34 30.82 168.78 30.82 169.14 30.82C169.42 30.38 169.57 29.95 169.86 29.59C170.50 28.73 170.94 27.79 171.15 26.71C171.30 25.85 171.44 24.98 172.09 24.34C171.87 23.18 171.80 22.03 172.16 20.88C172.23 20.66 172.16 20.30 172.16 20.02C172.23 19.58 171.66 19.94 171.66 19.73C171.66 19.08 171.73 18.58 171.73 18.07C171.37 17.71 171.01 17.42 170.72 17.14C167.62 17.57 164.53 17.78 161.43 17.14C161.36 16.56 161.43 15.91 161.29 15.41C160.86 14.47 160.71 13.61 161 12.53C161.22 11.81 161.22 10.94 161.14 10.15C161.07 9.29 161.29 8.50 161.22 7.70C161.14 7.34 161.22 6.98 161.29 6.62C161.43 6.19 161.43 5.76 161.50 5.33C161.50 4.75 161.50 4.18 161.50 3.60C161.50 2.95 161.58 2.23 161.07 1.73C160.93 1.51 160.93 1.22 160.93 1.01C160.93-0.14 160.78-0.29 159.63-0.43C159.34-0.43 159.06-0.43 158.77-0.43C158.34-0.36 157.83-0.36 157.33-0.36C156.03-0.43 154.81-0.50 153.51-0.58C153.37-0.58 153.30-0.58 153.22-0.50C152.94-0.50 152.86-0.29 152.94 0.14C153.01 0.29 153.01 0.36 153.08 0.58C152.65 1.01 152.29 1.44 151.86 1.73C150.99 2.30 150.27 3.17 149.26 3.60C148.98 3.74 148.69 4.10 148.76 4.54C149.05 5.40 148.69 6.26 149.05 7.13C149.12 7.27 148.98 7.56 148.90 7.78C148.83 7.92 148.62 8.06 148.62 8.21C148.62 9.07 148.62 9.86 148.62 10.66C148.62 11.02 148.76 11.16 148.98 11.45C149.05 11.52 148.98 11.74 148.90 11.95C148.76 12.17 148.69 12.46 148.90 12.74C149.19 13.10 149.19 13.54 149.05 13.97C148.76 14.76 148.76 15.55 149.05 16.34C149.26 16.70 149.26 17.14 149.34 17.57C149.34 18.22 148.90 18.65 148.26 18.65C147.90 18.65 147.46 18.58 147.10 18.58C146.82 18.50 146.60 18.43 146.38 18.43C145.88 18.86 145.45 19.22 145.09 19.66C144.87 19.87 144.58 20.16 144.44 20.45C144.15 21.24 143.65 21.74 142.86 21.74C142.71 22.18 142.50 22.54 142.42 22.90C142.35 24.19 142.21 25.56 142.64 26.86C142.86 27.43 143 28.08 142.42 28.58C142.35 28.58 142.28 28.73 142.28 28.80C142.28 29.23 142.35 29.59 142.28 29.95C142.28 30.38 142.21 30.74 142.57 31.18C142.78 31.39 142.64 31.90 142.71 32.18C142.78 32.33 142.93 32.40 143.07 32.54C143.29 32.33 143.50 32.11 143.79 32.04C144.08 31.90 144.44 31.82 144.73 31.90C146.10 32.26 147.46 31.97 148.83 31.90C149.26 31.90 149.62 31.97 149.98 31.97C150.92 33.48 151.06 34.99 150.78 36.58C150.78 36.72 150.70 37.01 150.78 37.08C151.28 37.58 151.21 38.23 151.06 38.74C150.70 40.18 150.92 41.69 150.70 43.13C150.63 43.63 150.63 44.21 150.85 44.71C151.14 45.65 150.99 46.66 150.92 47.66C150.85 48.10 150.85 48.60 150.85 49.10C150.78 50.33 151.35 51.62 150.92 52.85C151.71 53.64 151.78 54.43 151.57 55.44C151.42 56.23 151.28 57.10 151.78 57.89C151.86 57.96 151.78 58.10 151.78 58.25C151.57 58.46 151.28 58.68 151.50 59.26C151.86 59.33 152.36 59.62 152.79 59.54C153.44 59.33 154.23 59.26 154.95 58.97C156.61 58.18 158.41 58.03 160.21 58.18C160.71 57.31 161.22 56.45 161.72 55.58C161.86 55.30 162.08 55.01 162.08 54.72C162.08 53.93 162.44 53.35 162.87 52.78C162.66 51.84 162.44 50.90 162.87 49.97C162.94 49.75 162.94 49.46 162.87 49.25C162.58 48.53 162.73 47.81 162.87 47.02C162.87 46.80 163.02 46.51 162.94 46.37C162.66 45.72 162.94 45.14 162.94 44.50C163.09 43.56 163.16 42.62 162.73 41.76C162.58 41.54 162.58 41.33 162.58 41.18C162.58 40.82 162.80 40.54 162.73 40.25C162.66 39.89 162.22 39.67 162.22 39.24C162.30 39.10 162.15 38.88 162.08 38.74C162.30 38.52 162.44 38.30 162.58 38.09C162.66 37.94 162.66 37.66 162.58 37.58C161.65 37.15 162.08 36.58 162.44 36.07ZM154.09 16.99C154.30 16.70 154.52 16.49 154.52 16.27C154.66 15.48 154.74 14.69 154.45 13.90C154.23 13.18 154.16 12.46 154.09 11.81C154.09 11.59 154.09 11.30 154.16 11.23C154.66 10.94 154.59 10.51 154.52 10.08C154.52 9.50 154.52 8.93 154.45 8.35C154.38 7.92 154.23 7.56 154.45 7.13C154.59 6.98 154.52 6.77 154.59 6.55C154.59 5.83 154.59 5.04 154.59 4.25C154.59 3.67 154.52 3.10 154.38 2.59C154.16 1.94 154.23 1.37 154.45 0.72C155.60 0.50 156.75 0.58 157.90 0.65C158.77 0.65 158.91 0.72 159.49 0.43C159.92 0.86 160.06 1.30 160.06 1.87C160.14 2.88 159.92 3.89 160.28 4.82C160.35 5.11 160.35 5.47 160.21 5.69C159.56 6.84 159.78 7.99 159.92 9.14C159.99 9.94 160.06 10.73 159.85 11.45C159.63 12.02 159.63 12.53 159.85 13.10C159.99 13.68 160.14 14.18 159.85 14.76C159.78 15.05 159.85 15.48 159.92 15.77C160.14 16.63 160.42 17.42 160.35 18.29C160.35 18.79 160.78 19.08 161.29 18.94C161.79 18.86 162.30 18.72 162.80 18.65C163.38 18.50 163.95 18.43 164.60 18.65C165.10 18.86 165.75 18.79 166.33 18.79C167.70 18.79 169.06 18.79 170.58 18.79C170.65 19.08 170.79 19.44 170.79 19.73C170.50 20.95 170.79 22.18 170.86 23.47C169.86 23.90 168.92 24.55 167.84 23.62C166.83 24.19 165.75 24.26 164.67 23.98C164.02 23.83 163.30 23.62 162.73 24.05C162.66 24.12 162.58 24.12 162.58 24.12C161.72 23.69 161.07 24.19 160.42 24.62C160.50 24.91 160.57 25.20 160.64 25.49C160.64 25.78 160.57 26.06 160.64 26.35C160.64 26.71 160.64 27.14 160.71 27.50C160.86 28.51 161.07 29.52 160.93 30.60C160.78 31.54 160.86 32.54 160.86 33.48C161.22 33.77 161.29 34.06 160.93 34.42C160.93 34.49 160.93 34.63 160.93 34.70C161.43 35.28 161.22 35.86 161.14 36.50C161.14 37.22 161.14 37.94 161.50 38.66C161.94 39.46 161.79 39.60 161 40.18C161.07 40.39 161.22 40.61 161.29 40.90C161.29 41.18 161.43 41.40 161.72 41.62C161.79 41.62 161.72 41.83 161.72 41.98C161.72 42.98 161.86 43.99 161.58 45.00C161.36 45.72 161.50 46.51 161.50 47.23C161.50 47.88 161.65 48.46 161.65 49.10C161.65 49.25 161.65 49.39 161.58 49.46C161.22 49.82 161.29 50.26 161.29 50.69C161.29 51.05 161.22 51.48 161.65 51.70C161.72 51.70 161.72 51.84 161.72 51.98C161.58 52.34 160.93 52.92 160.50 52.92C160.42 52.85 160.35 52.78 160.28 52.70C159.99 52.42 159.70 52.49 159.42 52.63C158.62 53.06 157.76 53.06 156.82 52.99C156.82 52.63 156.82 52.42 156.82 52.13C156.90 51.70 156.82 51.26 156.61 50.90C156.25 50.47 156.18 49.97 156.39 49.54C156.61 49.03 156.61 48.60 156.46 48.10C156.32 47.81 156.32 47.45 156.39 47.16C156.46 46.51 156.39 45.86 156.25 45.29C155.89 43.85 156.10 42.34 155.96 40.90C155.82 39.74 155.82 38.66 155.74 37.58C155.74 37.51 155.74 37.37 155.74 37.30C155.10 35.86 155.53 34.27 155.38 32.76C155.38 32.40 155.38 32.11 155.31 31.75C155.17 30.74 155.02 29.81 154.88 28.80C154.88 28.73 154.88 28.58 154.88 28.51C155.46 27.94 155.02 27.36 154.95 26.78C154.95 26.42 154.95 26.14 154.95 25.78C154.88 25.06 154.38 24.55 153.73 24.77C153.01 24.98 152.29 24.91 151.64 25.20C150.99 25.42 150.34 25.42 149.77 25.34C149.12 25.27 148.47 25.27 147.82 25.63C147.68 25.70 147.46 25.63 147.32 25.63C146.67 24.70 146.60 23.76 146.96 22.75C147.18 22.18 146.89 21.46 147.46 21.02C147.46 20.66 147.46 20.30 147.46 19.94C148.76 19.58 148.76 19.58 149.48 20.45C149.91 20.38 150.34 20.30 150.85 20.16C151.42 20.02 152 19.87 152.65 20.02C153.37 20.23 153.94 19.73 154.16 19.08C154.38 18.36 154.52 17.71 154.09 16.99Z"/></svg>