<svg xmlns="http://www.w3.org/2000/svg" xmlns:xlink="http://www.w3.org/1999/xlink" width="76.1" height="72.00000000000001"><path fill="#4db6ac" stroke="#00695c" d="M41.57 45.36C42.14 45.79 42.22 46.44 42.29 47.02C42.43 47.81 42.79 48.38 43.37 48.96C43.66 49.18 43.80 49.46 44.02 49.75C44.30 50.18 44.59 50.76 44.95 51.19C45.31 51.62 45.82 51.91 46.18 52.34C46.46 52.92 46.97 52.99 47.47 53.14C48.12 53.42 48.55 53.93 48.98 54.43C49.63 55.15 50.42 55.58 51.43 55.44C51.94 55.37 52.30 55.44 52.73 55.73C53.74 56.38 54.82 56.74 55.97 56.30C56.26 56.23 56.54 56.30 56.83 56.38C57.84 56.59 58.85 56.66 59.93 56.16C61.37 55.51 62.88 55.01 64.39 54.43C64.61 54.29 64.82 54.29 65.04 54.22C65.76 54.07 66.41 53.78 66.84 53.14C67.78 51.98 68.57 50.76 69.50 49.61C69.86 49.18 70.15 48.60 70.51 48.10C70.66 47.88 70.66 47.66 70.73 47.45C70.94 47.02 71.02 46.51 71.30 46.15C71.88 45.58 71.81 44.86 71.95 44.14C72.02 43.92 71.81 43.56 71.66 43.27C71.88 42.84 72.10 42.41 72.31 41.98C72.74 41.40 72.96 40.75 72.96 40.10C73.03 38.95 73.46 37.80 73.68 36.65C73.82 35.93 74.18 35.21 73.82 34.42C73.75 34.34 73.75 34.13 73.75 33.98C73.97 31.97 74.18 29.95 74.04 27.94C74.04 27.79 74.04 27.72 74.04 27.65C74.11 26.78 74.04 25.99 73.97 25.20C73.90 24.19 73.54 23.26 73.68 22.25C73.82 21.24 73.75 20.23 73.39 19.22C73.32 19.01 73.25 18.72 73.32 18.58C73.54 18.14 73.32 17.71 73.32 17.28C73.25 16.85 73.32 16.34 73.32 15.91C73.03 15.84 72.82 15.91 72.74 15.77C72.10 15.26 71.38 15.34 70.66 15.34C70.22 15.26 69.79 15.48 69.43 15.19C69.14 14.98 68.86 15.12 68.64 15.34C68.50 15.48 68.28 15.55 68.06 15.62C67.78 15.70 67.49 15.62 67.20 15.62C65.69 15.70 65.69 15.70 64.97 16.99C64.61 17.71 64.18 18.36 63.82 19.08C63.46 19.08 63.17 19.08 63.02 19.08C62.81 19.58 62.66 19.94 62.38 20.30C62.09 20.74 61.80 21.17 61.80 21.67C61.87 22.54 62.02 23.40 62.16 24.26C62.30 24.98 62.38 25.78 62.59 26.50C62.74 27.29 62.88 28.01 62.95 28.87C62.95 29.52 63.10 30.31 63.46 30.89C63.67 31.39 63.89 31.82 63.96 32.33C64.03 32.54 64.10 32.69 64.18 32.83C64.54 33.55 64.61 34.27 64.46 35.06C64.39 35.50 64.32 35.93 64.39 36.36C64.97 38.30 64.75 40.25 64.18 42.12C64.03 42.70 63.89 43.20 63.96 43.85C63.96 44.28 63.82 44.64 63.24 44.78C62.66 44.93 62.16 45.22 61.58 45.43C61.30 46.22 60.36 45.86 59.86 46.37C59.86 46.37 59.57 46.37 59.50 46.30C59.06 45.94 58.56 46.08 58.13 46.01C57.55 45.86 57.12 45.65 56.90 45.14C56.62 44.57 56.11 44.21 55.46 44.06C54.74 43.78 53.81 42.48 53.59 41.69C53.59 41.40 53.52 41.11 53.38 40.90C52.94 40.25 52.73 39.60 52.80 38.81C52.94 37.73 52.37 36.72 52.30 35.64C51.79 35.06 51.94 34.34 52.08 33.70C52.22 33.34 52.22 32.90 52.08 32.40C51.94 32.54 51.79 32.62 51.72 32.69C51.65 31.97 51.58 31.10 51.79 30.24C52.08 29.30 52.15 28.37 51.86 27.43C51.79 27.22 51.72 26.93 51.72 26.71C51.94 24.84 51.58 22.90 51.65 21.02C51.65 20.38 51.72 19.80 51.79 19.15C51.86 18.58 51.65 18.14 51.36 17.71C51.14 17.42 50.86 17.42 50.57 17.50C50.14 17.64 49.70 17.78 49.20 17.93C48.84 18 48.34 18.22 47.98 18.14C47.47 18 47.18 18.07 46.82 18.29C46.54 18.50 46.03 18.29 45.67 18.22C45.38 18.58 45.17 18.86 44.88 19.15C44.74 19.30 44.59 19.58 44.38 19.58C43.58 19.66 43.22 20.30 42.65 20.74C42.22 21.02 41.93 21.38 41.35 21.24C41.21 21.17 40.92 21.31 40.78 21.46C40.27 21.96 39.84 22.46 39.34 22.90C38.90 23.40 38.76 23.90 39.05 24.48C39.19 24.77 39.19 24.91 38.90 25.06C38.76 25.20 38.76 25.49 38.76 25.70C38.69 26.42 38.69 27.14 38.69 27.86C38.69 28.37 38.54 28.94 38.90 29.45C38.98 29.59 38.90 29.81 38.90 29.95C38.90 30.96 38.90 31.97 38.90 32.98C38.90 33.34 38.90 33.77 38.83 34.13C38.54 35.42 38.54 36.65 39.34 37.80C39.55 38.23 39.84 38.74 39.84 39.10C39.70 40.32 40.06 41.33 40.56 42.41C40.63 42.62 40.56 42.84 40.56 43.06C40.56 43.78 40.49 44.50 41.35 44.86C41.42 44.93 41.50 45.22 41.64 45.36ZM67.06 16.63C68.06 17.21 68.86 16.99 69.58 16.70C69.94 16.63 70.22 16.42 70.51 16.34C71.23 16.20 71.95 16.70 72.02 17.35C72.17 18.58 72.60 19.73 72.24 20.88C72.10 21.24 72.24 21.60 72.24 21.89C72.31 22.54 72.46 23.26 72.46 23.90C72.53 25.49 72.46 27.07 72.60 28.58C72.60 29.09 72.60 29.52 72.53 30.02C72.46 30.38 72.31 30.74 72.60 31.10C72.67 31.25 72.67 31.54 72.67 31.75C72.67 32.18 72.60 32.62 72.60 33.05C72.60 34.06 72.67 35.06 72.46 36.07C72.38 36.65 72.53 37.22 72.53 37.80C72.53 38.38 72.46 39.02 72.02 39.53C71.66 39.82 71.59 40.25 71.45 40.61C71.23 41.33 71.09 42.05 70.80 42.70C70.66 43.06 70.58 43.49 70.51 43.92C70.51 44.50 70.37 45.14 69.72 45.43C69.50 45.58 69.36 45.79 69.22 46.01C68.71 47.02 67.85 47.66 67.06 48.46C66.77 48.74 66.48 48.96 66.05 49.18C65.40 49.39 64.90 49.82 64.32 50.18C63.96 50.40 63.67 50.40 63.24 50.33C62.66 50.26 62.02 50.47 61.44 50.62C60.58 50.76 59.78 51.05 58.99 51.19C58.70 51.26 58.49 51.34 58.27 51.19C56.98 50.76 55.68 51.26 54.46 50.90C53.38 50.62 52.30 50.40 51.36 49.82C50.71 49.32 49.99 48.89 49.34 48.46C49.20 48.31 49.20 48.10 49.13 47.95C48.91 47.30 48.70 46.73 48.26 46.22C47.90 45.72 47.69 45.14 47.40 44.57C47.18 44.14 47.11 43.70 46.54 43.49C46.39 43.49 46.32 43.20 46.25 43.06C46.18 42.62 46.18 42.19 46.10 41.76C45.96 41.11 45.89 40.46 45.60 39.89C45.38 39.53 45.24 39.17 45.46 38.74C45.67 38.23 45.02 37.94 45.02 37.44C45.10 37.01 45.46 36.65 45.17 36.22C44.88 35.71 44.88 35.14 44.95 34.56C45.02 34.06 44.95 33.48 44.74 33.05C44.16 31.68 44.45 30.31 44.59 28.94C44.59 28.37 44.74 27.79 44.74 27.22C44.59 26.57 44.66 25.92 44.81 25.27C44.88 24.62 44.95 23.90 45.02 23.26C45.17 22.46 45.46 21.74 45.46 20.95C45.46 20.59 45.53 20.23 45.53 19.87C45.74 19.66 46.03 19.51 46.32 19.30C46.61 19.08 46.90 19.01 47.26 19.15C48.19 19.51 48.98 19.44 49.78 18.79C49.85 18.79 49.99 18.86 50.21 18.86C50.21 19.01 50.42 19.30 50.35 19.44C50.06 20.52 50.28 21.60 50.50 22.68C50.57 23.33 50.57 23.90 50.50 24.55C50.42 25.99 50.50 27.50 50.64 28.94C50.71 29.16 50.78 29.38 50.71 29.52C50.28 30.60 50.35 31.68 50.71 32.76C50.78 33.05 50.86 33.41 50.78 33.70C50.57 34.63 50.86 35.42 51.22 36.22C51.58 36.79 51.72 37.37 51.58 38.02C51.58 38.09 51.50 38.23 51.58 38.23C52.08 38.95 51.86 39.82 52.01 40.61C52.08 40.97 52.15 41.40 52.37 41.69C52.87 42.48 53.30 43.42 54.17 44.06C54.67 44.42 54.96 45.00 55.39 45.43C55.61 45.65 55.90 45.79 56.11 45.86C56.62 45.94 56.98 46.15 57.19 46.51C57.48 47.16 58.13 47.30 58.70 47.38C59.35 47.38 59.93 47.30 60.58 47.23C60.86 47.16 61.22 47.09 61.51 47.02C61.66 47.02 61.87 47.02 61.94 46.94C62.38 46.22 63.10 46.15 63.74 45.94C64.54 45.50 65.26 44.86 65.69 44.06C66.19 43.20 66.41 42.19 67.13 41.47C66.91 40.68 67.92 40.39 67.85 39.60C67.85 38.95 68.14 38.30 68.28 37.66C68.28 37.44 68.35 37.15 68.35 36.94C68.42 35.93 68.50 34.85 68.71 33.84C68.78 33.12 69 32.47 68.64 31.75C68.50 31.46 68.71 30.96 68.78 30.53C68.86 29.88 69.07 29.23 69.14 28.51C69.22 27.94 69.14 27.43 68.86 26.86C68.57 26.35 68.57 25.70 68.57 25.06C68.64 24.12 68.42 23.18 68.35 22.25C68.35 22.18 68.21 22.03 68.14 22.03C67.56 21.82 67.56 21.17 67.63 20.81C67.78 19.66 67.34 18.58 67.42 17.50C67.42 17.28 67.20 17.06 67.06 16.63Z"/></svg>